<svg width="8" height="8" viewBox="0 0 15 19" fill="none" xmlns="http://www.w3.org/2000/svg">
    <path fill-rule="evenodd" clip-rule="evenodd"
        d="M6.86842 0.0488625C5.58982 0.265898 4.50223 1.06286 3.95194 2.186C3.56939 2.96678 3.53399 3.23113 3.53381 5.30915L3.53366 6.96994L2.771 6.97057C2.24352 6.97102 1.92897 6.98805 1.75104 7.02576C0.923757 7.20116 0.234158 7.89746 0.060453 8.7328C-0.020151 9.12055 -0.020151 16.8439 0.060453 17.2316C0.234158 18.0669 0.923757 18.7633 1.75104 18.9387C2.13701 19.0204 12.8694 19.0204 13.2554 18.9387C14.0827 18.7633 14.7723 18.0669 14.946 17.2316C14.9916 17.0124 15 16.3494 15 12.9822C15 8.55514 15.0079 8.71224 14.757 8.19466C14.571 7.81114 14.1682 7.40438 13.7883 7.21659C13.3747 7.0121 13.1178 6.97132 12.2379 6.97057L11.4778 6.96994L11.4642 5.1607L11.4506 3.35145L11.3514 2.98032C10.9919 1.6354 9.99462 0.585476 8.69026 0.178683C8.11982 0.000764375 7.4379 -0.0478162 6.86842 0.0488625ZM8.01014 1.53515C8.1722 1.5683 8.44183 1.66534 8.64016 1.76195C8.92693 1.90168 9.03888 1.9834 9.28804 2.23499C9.52839 2.47767 9.62009 2.60344 9.74175 2.85729C9.99168 3.37862 10.0012 3.46906 10.0019 5.3277L10.0026 6.96994H7.50322H5.00387L5.00449 5.3277C5.00501 4.03054 5.01644 3.63087 5.05896 3.42568C5.20334 2.729 5.71045 2.08231 6.36381 1.76162C6.9191 1.48906 7.43647 1.41791 8.01014 1.53515ZM13.185 8.57448C13.2642 8.63026 13.3703 8.73759 13.4208 8.813L13.5127 8.95002V12.9822V17.0144L13.4208 17.1514C13.3703 17.2268 13.2641 17.3342 13.185 17.3899L13.0411 17.4914H7.50322H1.96529L1.82143 17.3899C1.74229 17.3342 1.63618 17.2268 1.58564 17.1515L1.49376 17.0144L1.4839 13.0656C1.4774 10.4489 1.48681 9.069 1.51184 8.97518C1.55734 8.8045 1.80581 8.54204 1.96679 8.49457C2.03442 8.47464 4.34114 8.46321 7.56151 8.46685L13.0411 8.47301L13.185 8.57448ZM7.13897 10.6659C6.57677 10.8185 6.14328 11.4007 6.14328 12.0032C6.14328 12.3556 6.39266 12.8657 6.65825 13.0567L6.76356 13.1324L6.77502 14.0715L6.78649 15.0105L6.88511 15.1608C7.03734 15.393 7.21667 15.4875 7.50322 15.4866C7.81244 15.4856 8.00838 15.3634 8.14514 15.0863C8.23699 14.9002 8.23832 14.8851 8.23832 14.0166V13.1357L8.34586 13.0584C8.61373 12.8658 8.86316 12.357 8.86316 12.0032C8.86316 11.3919 8.42768 10.8155 7.85129 10.6639C7.5872 10.5945 7.40004 10.595 7.13897 10.6659Z"
        fill="#3E3E3E" />
</svg>
