<svg width="147" height="23" viewBox="0 0 147 23" fill="none" xmlns="http://www.w3.org/2000/svg">
<path d="M23.3462 0.0376778C23.3462 0.0645469 28.4082 4.99772 34.5933 11.0003L45.8349 21.9253H48.1197C49.37 21.9253 50.399 21.9038 50.399 21.8823C50.399 21.8554 45.3425 16.9223 39.1574 10.9197L27.9158 6.09681e-05H25.631C24.3752 6.09681e-05 23.3462 0.0161825 23.3462 0.0376778Z" fill="#F41100"/>
<path d="M17.0227 5.36312C14.1293 8.17363 11.7228 10.479 11.6841 10.479C11.6343 10.479 11.6177 9.7213 11.6177 6.93765C11.6177 4.81499 11.5956 3.38018 11.5679 3.35868C11.5402 3.34256 11.319 3.48765 11.0811 3.68111C10.8432 3.87994 10.5998 4.07877 10.5389 4.12714C10.4781 4.1755 10.0078 4.56242 9.48778 4.98695C8.97328 5.41148 8.34814 5.922 8.11026 6.11546C7.86684 6.31429 7.62342 6.51849 7.5681 6.56686C7.47405 6.65821 7.46852 6.86779 7.46852 10.6563V14.6437L3.73426 18.2711C1.6818 20.2648 0 21.9145 0 21.936C0 21.9575 1.00133 21.979 2.22949 21.979C4.11598 21.979 4.47558 21.9683 4.57516 21.8984C4.73006 21.7909 24.5631 2.52574 24.5631 2.47737C24.5631 2.46125 24.0542 1.95074 23.429 1.34349L22.2949 0.241858L17.0227 5.36312Z" fill="#354FA6"/>
<path d="M22.7932 9.08188L20.4973 9.10875L20.4807 13.483C20.4752 16.6697 20.4862 17.8735 20.5305 17.9272C20.5803 17.9917 21.3327 18.0024 24.8678 18.0024C27.219 18.0024 29.2549 17.9863 29.3987 17.9702L29.6532 17.9326V13.5314C29.6532 10.0599 29.6366 9.12487 29.5868 9.10875C29.4706 9.07113 25.2661 9.05501 22.7932 9.08188ZM25.0338 11.4195V13.5153L22.8928 13.5314L20.7463 13.5422V11.4195V9.29683L22.8928 9.30758L25.0338 9.3237V11.4195ZM29.4042 11.4195V13.5153H27.385H25.3657L25.3491 11.4732C25.3436 10.3501 25.3491 9.39894 25.3657 9.36132C25.3823 9.30758 25.8193 9.29683 27.396 9.30758L29.4042 9.3237V11.4195ZM25.0504 15.7562L25.0614 17.7337H22.9038H20.7463V15.783C20.7463 14.7083 20.7629 13.8109 20.785 13.7947C20.8071 13.7732 21.7697 13.7625 22.926 13.7679L25.0338 13.784L25.0504 15.7562ZM29.3711 13.8323C29.4153 13.8807 29.4319 14.445 29.4208 15.8045L29.4042 17.7069L27.3739 17.723L25.338 17.7337L25.3325 16.6214C25.3214 15.1919 25.3436 13.8485 25.3768 13.7947C25.3878 13.7732 26.2785 13.7571 27.3518 13.7571C28.9395 13.7571 29.3213 13.7732 29.3711 13.8323Z" fill="black"/>
<path d="M63.2363 3.5524C62.1243 3.74586 61.1341 4.21338 60.4536 4.85824C60.0885 5.20216 59.6791 5.84165 59.5076 6.31992C59.242 7.07226 59.2531 8.10941 59.5408 8.96385C59.9114 10.0655 61.2779 11.1994 63.0482 11.8818C64.2266 12.3332 64.9513 12.7954 65.1726 13.236C65.4105 13.7197 65.3773 14.4237 65.0841 14.8643C64.8241 15.2674 64.3981 15.4662 63.69 15.5145C63.3414 15.5414 63.1865 15.5199 62.7716 15.4017C62.1575 15.2297 61.4051 14.8966 60.6417 14.4666C60.1825 14.2087 60.0497 14.155 59.9944 14.2087C59.9225 14.2839 58.9267 16.4012 58.9267 16.4926C58.9267 16.5786 59.4467 16.8634 60.2268 17.2073C62.2737 18.1047 64.4811 18.2606 66.1518 17.6372C66.7936 17.3954 67.2417 17.1159 67.723 16.6645C68.4975 15.9391 68.8848 15.2082 69.0839 14.1174C69.1835 13.5746 69.1558 12.9136 69.0175 12.3171C68.9346 11.9624 68.6469 11.323 68.5141 11.194C68.4754 11.1564 68.4422 11.1026 68.4422 11.0811C68.4422 11.0596 68.2983 10.9038 68.1268 10.7318C67.5736 10.1945 66.5999 9.6302 65.5654 9.24866C64.9347 9.01758 63.9666 8.4802 63.6844 8.20614C63.3414 7.88371 63.181 7.58277 63.1478 7.21198C63.0925 6.6316 63.3193 6.30917 63.9445 6.0781C64.2155 5.976 64.3372 5.96525 64.7356 5.98674C65.3552 6.02436 65.9084 6.2017 66.8766 6.66922C67.3081 6.87343 67.6953 7.04539 67.7341 7.04539C67.7783 7.04539 67.9664 6.74983 68.1656 6.38441C68.3592 6.02436 68.6192 5.54609 68.7409 5.32039C68.8626 5.09469 68.9456 4.87973 68.929 4.83137C68.8792 4.70777 67.7838 4.18651 67.1089 3.96081C66.1684 3.6545 65.5046 3.54702 64.4313 3.52553C63.9168 3.51478 63.3746 3.52553 63.2363 3.5524Z" fill="#F41100"/>
<path d="M45.041 3.71391C44.9691 3.7569 44.9581 4.26204 44.9415 7.59382C44.9138 13.4352 44.9691 14.0693 45.6219 15.3321C45.9705 15.9985 46.4352 16.5574 46.9497 16.9174C47.1322 17.0464 47.3148 17.1754 47.3535 17.2076C47.4642 17.299 48.0948 17.5676 48.543 17.7127C49.1792 17.9169 49.8873 18.0083 50.9052 18.0083C53.0351 18.0083 54.5233 17.5032 55.6242 16.4123C56.3379 15.7029 56.7307 14.9613 57.0073 13.7898C57.1124 13.3277 57.118 13.1181 57.1401 8.55036C57.1622 4.06858 57.1567 3.79452 57.0682 3.73003C56.9299 3.6333 53.782 3.62793 53.6824 3.72466C53.6326 3.77302 53.616 4.84779 53.616 8.2333C53.616 12.973 53.605 13.2148 53.3339 13.9134C53.1679 14.3595 53.0849 14.4884 52.7862 14.784C52.3215 15.2462 51.5802 15.4772 50.8499 15.402C49.6439 15.2676 48.98 14.7088 48.6149 13.5212C48.5042 13.1557 48.4987 13.0214 48.4821 8.47512C48.471 5.21321 48.4489 3.7784 48.4047 3.73003C48.3604 3.67629 47.9953 3.66017 46.7339 3.66017C45.8156 3.66017 45.0908 3.68167 45.041 3.71391Z" fill="#F41100"/>
<path d="M71.2974 3.7463C71.2199 3.82154 71.2089 4.53088 71.2089 10.7753C71.2089 16.2458 71.2255 17.7398 71.2808 17.8042C71.3416 17.8849 71.6404 17.8956 74.1133 17.9063C77.4106 17.9225 77.7204 17.901 78.7881 17.5678C79.878 17.2292 80.5585 16.8423 81.25 16.1545C82.1739 15.2463 82.6995 14.1447 82.9982 12.4734C83.1088 11.8662 83.0923 10.0122 82.965 9.27598C82.7382 7.90565 82.1407 6.46546 81.5598 5.87972C81.4989 5.81523 81.4436 5.75074 81.4436 5.73462C81.4436 5.72387 81.2887 5.56266 81.1062 5.38532C80.4478 4.75658 79.4963 4.22995 78.5392 3.95588C77.6208 3.69794 77.1174 3.66032 74.1299 3.66032C71.7068 3.66032 71.3748 3.67107 71.2974 3.7463ZM76.6582 6.10542C78.4341 6.47084 79.2916 8.08299 79.286 11.0493C79.2805 12.7743 78.8988 14.0479 78.1851 14.7304C77.831 15.0636 77.2169 15.386 76.7522 15.4774C76.3428 15.558 74.9044 15.558 74.8159 15.472C74.7661 15.4236 74.7495 14.3005 74.7495 10.7484C74.7495 6.35261 74.7551 6.08392 74.8491 6.06243C75.0815 6.00331 76.2986 6.03018 76.6582 6.10542Z" fill="#F41100"/>
<path d="M85.6202 9.31293C85.6368 13.3648 85.6479 13.972 85.7309 14.3267C85.7807 14.547 85.8471 14.7781 85.8747 14.8372C85.9024 14.8963 85.9909 15.1059 86.0684 15.2994C86.5441 16.444 87.4072 17.2662 88.6132 17.7337C89.3048 17.997 89.8248 18.0938 90.804 18.126C91.916 18.1636 92.6463 18.0884 93.3876 17.8627C94.3945 17.5618 94.992 17.234 95.5729 16.6697C96.2589 16.0034 96.6682 15.2295 96.8951 14.144C97.0057 13.6281 97.0113 13.397 97.0334 9.27532C97.0444 6.89471 97.0389 4.89564 97.0223 4.82578L96.9891 4.70756L95.3737 4.71831L93.7638 4.73443L93.7306 9.16784C93.6974 13.972 93.7085 13.8216 93.3821 14.5148C93.0888 15.1274 92.6352 15.4982 92.0101 15.6433C90.8317 15.912 89.692 15.4445 89.2273 14.5094C88.8898 13.8108 88.9064 14.058 88.8732 9.19471L88.84 4.73443L87.2191 4.71831L85.5981 4.70756L85.6202 9.31293Z" fill="#354FA6"/>
<path d="M142.585 8.01795C142.286 8.05557 141.489 8.30277 141.108 8.47473C140.001 8.96375 139.122 9.96328 138.685 11.21C138.452 11.8764 138.369 12.4567 138.369 13.3864C138.369 15.638 139.072 16.9976 140.621 17.7553C141.03 17.9542 141.263 18.0187 141.893 18.1154C142.751 18.2497 144.018 18.1906 144.958 17.9757C145.423 17.8682 146.314 17.5941 146.618 17.4651C146.872 17.3523 146.911 17.3201 146.883 17.218C146.867 17.1481 146.745 16.7182 146.607 16.2614C146.397 15.5574 146.341 15.4285 146.258 15.4338C146.197 15.4392 145.832 15.5306 145.434 15.638C144.654 15.853 143.868 15.9927 143.459 15.9927C143.144 15.9927 142.601 15.8315 142.364 15.6703C142.159 15.5252 141.926 15.1866 141.832 14.8857C141.755 14.6331 141.805 14.5418 142.009 14.5418C142.297 14.5418 143.63 14.2516 144.106 14.085C144.765 13.8539 145.124 13.6766 145.545 13.3864C146.568 12.6717 147.06 11.7635 146.994 10.6995C146.944 9.88267 146.651 9.21094 146.131 8.74879C145.921 8.56608 145.196 8.20066 144.825 8.09319C144.604 8.0287 142.95 7.97496 142.585 8.01795ZM143.448 10.2212C144.001 10.4792 144.034 11.3658 143.509 11.9247C143.116 12.3439 142.126 12.7362 141.716 12.6341C141.572 12.6018 141.572 12.5965 141.606 12.2149C141.65 11.7259 141.772 11.2852 141.96 10.9037C142.12 10.592 142.507 10.2105 142.712 10.1729C142.983 10.1191 143.271 10.1406 143.448 10.2212Z" fill="#354FA6"/>
<path d="M100.43 8.15219C100.264 8.20593 99.7553 8.36177 99.2961 8.49612C98.8424 8.63584 98.4441 8.77018 98.4164 8.79705C98.3888 8.81855 98.4386 8.94752 98.5382 9.09799C98.9033 9.65149 99.2186 10.6833 99.3237 11.6452C99.3514 11.9246 99.3791 13.4454 99.3791 15.0307C99.3791 17.4059 99.3901 17.9272 99.4565 17.9756C99.5063 18.0185 99.9655 18.0347 101.017 18.0239L102.505 18.0078L102.532 15.1328C102.566 12.4513 102.571 12.2309 102.676 11.8816C102.992 10.8391 103.633 10.205 104.264 10.3178C104.552 10.3716 104.723 10.5328 104.862 10.8767C104.989 11.1777 104.989 11.2153 105.016 14.5954L105.05 18.0078L106.582 18.0239L108.12 18.0347L108.153 17.9057C108.17 17.8358 108.175 16.1861 108.164 14.2407C108.142 11.1347 108.126 10.6457 108.043 10.2426C107.794 9.07112 107.108 8.3349 106.056 8.11458C105.393 7.97486 104.546 8.03397 103.744 8.27579C103.158 8.45313 102.538 8.87229 102.112 9.38817C101.902 9.63537 101.78 9.74822 101.741 9.7106C101.714 9.68374 101.609 9.45803 101.515 9.21084C101.321 8.72182 100.989 8.18444 100.834 8.10383C100.768 8.07159 100.635 8.08233 100.43 8.15219Z" fill="#354FA6"/>
<path d="M119.975 8.11468C119.411 8.22216 119.057 8.34038 118.52 8.61445C117.287 9.23781 116.418 10.3556 116.025 11.8172C115.87 12.3869 115.832 13.8378 115.953 14.5687C116.208 16.1486 116.938 17.3039 117.995 17.7929C118.404 17.9757 118.836 18.0778 119.4 18.1208C120.235 18.1799 120.894 17.981 121.452 17.4974C121.723 17.2556 121.757 17.2448 121.806 17.3684C121.823 17.4168 121.84 18.4486 121.84 19.6684V21.8878L122.52 22.0007C122.891 22.0651 123.577 22.178 124.041 22.2586C124.506 22.3392 124.904 22.3822 124.927 22.3607C124.965 22.3231 124.999 8.97449 124.96 8.73804C124.938 8.61445 124.888 8.59295 124.396 8.4801C122.692 8.10393 120.86 7.95346 119.975 8.11468ZM121.403 10.2965C121.569 10.3287 121.735 10.3932 121.773 10.4469C121.9 10.6028 121.829 13.4079 121.685 14.0044C121.458 14.9502 121.115 15.5736 120.706 15.81C120.141 16.1271 119.599 15.853 119.383 15.1329C119.173 14.4343 119.134 12.4782 119.317 11.7205C119.599 10.549 120.268 10.0922 121.403 10.2965Z" fill="#354FA6"/>
<path d="M110.565 8.19C110.51 8.22761 110.499 9.05518 110.51 12.3708L110.527 16.5033L110.687 16.8419C110.953 17.4007 111.473 17.7984 112.208 18.0026C113.071 18.2444 114.98 17.9274 114.98 17.5405C114.98 17.2825 114.753 15.9122 114.704 15.8638C114.676 15.837 114.51 15.8208 114.344 15.8262C113.99 15.8423 113.796 15.751 113.691 15.5199C113.641 15.4124 113.619 14.4183 113.597 11.7743L113.569 8.17387L112.103 8.16313C111.296 8.15238 110.604 8.1685 110.565 8.19Z" fill="#354FA6"/>
<path d="M127.395 8.2224C127.378 8.26001 127.378 9.99576 127.389 12.0754C127.406 15.3965 127.423 15.8962 127.5 16.1542C127.849 17.2773 128.385 17.8093 129.42 18.0673C129.862 18.1747 130.858 18.1479 131.433 18.0028C132.225 17.8093 132.922 17.3794 133.386 16.7937C133.53 16.6163 133.68 16.482 133.718 16.4873C133.763 16.4981 133.857 16.6808 133.934 16.9011C134.067 17.2881 134.454 17.9329 134.637 18.0834C134.742 18.164 134.952 18.121 135.892 17.8201C136.152 17.7395 136.523 17.6266 136.711 17.5729C136.905 17.5245 137.076 17.4493 137.093 17.4116C137.11 17.374 137.065 17.2666 137.004 17.1806C136.833 16.9495 136.567 16.3476 136.44 15.9123C136.169 14.9827 136.152 14.6979 136.13 11.3715C136.114 9.03922 136.092 8.21702 136.042 8.19015C136.003 8.16866 135.323 8.14716 134.526 8.14716C133.425 8.14716 133.065 8.16329 133.032 8.21165C133.01 8.24927 132.971 9.56048 132.955 11.1296C132.933 13.6177 132.916 14.0208 132.828 14.3002C132.468 15.5039 131.776 16.1219 131.09 15.8586C130.902 15.7834 130.836 15.7135 130.709 15.4663L130.554 15.16L130.537 11.6939C130.526 9.04997 130.504 8.2224 130.454 8.19015C130.415 8.16866 129.718 8.14716 128.905 8.14716C127.71 8.14716 127.417 8.16329 127.395 8.2224Z" fill="#354FA6"/>
<ellipse cx="112" cy="5.5" rx="2" ry="1.5" fill="#354FA6"/>
</svg>
